<!DOCTYPE svg PUBLIC "-//W3C//DTD SVG 1.1//EN" "http://www.w3.org/Graphics/SVG/1.1/DTD/svg11.dtd">
<!-- Uploaded to: SVG Repo, www.svgrepo.com, Transformed by: SVG Repo Mixer Tools -->
<svg fill="#ffffff" height="800px" width="800px" version="1.1" id="Capa_1" xmlns="http://www.w3.org/2000/svg" xmlns:xlink="http://www.w3.org/1999/xlink" viewBox="0 0 489.7 489.7" xml:space="preserve" stroke="#ffffff">
<g id="SVGRepo_bgCarrier" stroke-width="0"/>
<g id="SVGRepo_tracerCarrier" stroke-linecap="round" stroke-linejoin="round"/>
<g id="SVGRepo_iconCarrier"> <g> <path d="M74.25,0v489.7h341.2V0H74.25z M118.95,44.7h251.9v116.6h-251.9V44.7z M176.85,445.1h-58.3v-47.8h58.3V445.1z M176.85,352.2h-58.3v-47.8h58.3V352.2z M176.85,259.3h-58.3v-47.8h58.3V259.3z M273.95,445.1h-58.3v-47.8h58.3V445.1z M273.95,352.2h-58.3v-47.8h58.3V352.2z M273.95,259.3h-58.3v-47.8h58.3V259.3z M370.75,445.1h-58.3v-47.8h58.3V445.1z M370.75,352.2h-58.3v-47.8h58.3V352.2z M370.75,259.3h-58.3v-47.8h58.3V259.3z"/> </g> </g>
</svg>